# xmcd CD database file
#
# Track frame offsets:
#	150
#	17720
#	38850
#	60645
#
# Disc length: 1098 seconds
#
# Revision: 2
# Processed by: cddbd v1.4PL0 Copyright (c) Steve Scherf et al.
# Submitted via: CDex 1.50Beta7
#
DISCID=2b044804
DTITLE=Shania Twain - God Bless The Child/Remixes
DYEAR=1997
DGENRE=Country
TTITLE0=God Bless The Child (Extended Mix)
TTITLE1=(If You're Not In It For Love) I'm Outta Here! (Remix)
TTITLE2=Whose Bed Have Your Boots Been Under? (Dance Mix)
TTITLE3=The Woman In Me (Needs The Man In You) (Steel Guitarless Mix)
EXTD=YEAR: 1997
EXTT0=
EXTT1=
EXTT2=
EXTT3=
PLAYORDER=
